<svg xmlns="http://www.w3.org/2000/svg" width="64.5" height="45.6" viewBox="0 0 64.5 45.6"><path fill="#3CC7AB" d="M60.675 23.325c-2.55-2.25-5.476-3.375-8.775-3.375-1 0-2.227.326-3.675.975-1.45.65-2.526.975-3.225.975-.502 0-.877-.25-1.125-.75-.25-.5-.375-1.25-.375-2.25 0-4.36 2-8.225 6-11.595 4-3.37 8.4-5.055 13.2-5.055L62.4 0c-7.8 0-14.45 2.65-19.95 7.95-5.5 5.3-8.25 11.65-8.25 19.05 0 5.1 1.575 9.476 4.726 13.125C42.076 43.775 46.1 45.6 51 45.6c3.998 0 7.25-1.3 9.75-3.9 2.498-2.6 3.75-5.85 3.75-9.75 0-3.5-1.275-6.376-3.825-8.625zm-34.2 0C23.925 21.075 21 19.95 17.7 19.95c-1 0-2.227.326-3.675.975-1.45.65-2.526.975-3.225.975-.502 0-.877-.25-1.125-.75-.25-.5-.375-1.25-.375-2.25 0-4.36 2-8.225 6-11.595 3.998-3.37 8.4-5.055 13.2-5.055L28.2 0C20.4 0 13.75 2.65 8.25 7.95 2.75 13.25 0 19.6 0 27c0 5.1 1.575 9.476 4.725 13.125C7.875 43.775 11.9 45.6 16.8 45.6c3.998 0 7.25-1.3 9.75-3.9 2.498-2.6 3.75-5.85 3.75-9.75 0-3.5-1.275-6.376-3.825-8.625z"/></svg>